<?xml version="1.0" standalone="no"?>
<!DOCTYPE svg PUBLIC "-//W3C//DTD SVG 20010904//EN"
 "http://www.w3.org/TR/2001/REC-SVG-20010904/DTD/svg10.dtd">
<svg version="1.0" xmlns="http://www.w3.org/2000/svg"
 width="700.000000pt" height="700.000000pt" viewBox="0 0 700.000000 700.000000"
 preserveAspectRatio="xMidYMid meet">
<metadata>
Created by potrace 1.14, written by Peter Selinger 2001-2017
</metadata>
<g transform="translate(0.000000,700.000000) scale(0.100000,-0.100000)"
fill="#000000" stroke="none">
<path d="M2778 6993 c-10 -2 -18 -9 -18 -14 0 -5 -7 -9 -15 -9 -14 0 -75 -80
-75 -99 0 -6 -4 -11 -9 -11 -8 0 -24 -37 -22 -52 1 -5 -4 -8 -10 -8 -5 0 -8
-4 -4 -9 3 -5 1 -12 -5 -16 -5 -3 -10 -17 -10 -31 0 -13 -4 -24 -9 -24 -4 0
-7 -11 -6 -25 2 -14 -1 -25 -5 -25 -5 0 -7 -17 -5 -37 2 -21 -1 -46 -6 -55 -7
-12 -6 -18 2 -18 8 0 9 -4 0 -13 -6 -8 -8 -17 -5 -20 4 -3 8 -23 9 -44 2 -36
19 -111 32 -143 3 -8 5 -18 5 -22 -1 -5 2 -8 8 -8 5 0 10 -9 10 -19 0 -11 6
-26 13 -33 8 -7 16 -18 18 -23 13 -30 52 -85 61 -85 5 0 7 -3 5 -7 -6 -10 18
-34 27 -27 3 2 4 1 1 -2 -2 -4 11 -28 30 -54 19 -26 35 -53 35 -59 0 -6 5 -11
11 -11 5 0 8 -4 4 -9 -3 -5 0 -15 7 -23 7 -7 15 -26 17 -43 1 -16 6 -34 9 -40
4 -5 7 -28 8 -50 0 -23 4 -46 8 -53 4 -7 3 -12 -1 -12 -5 0 -9 -15 -10 -32 -4
-58 -9 -76 -24 -94 -11 -14 -11 -16 0 -10 9 6 8 1 -3 -16 -9 -14 -14 -27 -11
-30 3 -3 -1 -11 -10 -18 -8 -7 -15 -18 -15 -24 0 -6 -16 -29 -35 -51 -46 -52
-102 -130 -87 -121 7 4 6 -4 -3 -21 -11 -21 -12 -29 -2 -35 9 -6 8 -8 -3 -8
-9 0 -11 -3 -5 -8 6 -4 11 -16 13 -27 5 -29 57 -75 89 -80 16 -1 33 -4 38 -5
6 -1 13 -1 18 0 11 4 26 7 36 9 11 1 68 58 93 93 9 13 29 38 43 56 15 17 24
32 20 32 -3 0 3 10 14 22 11 11 18 25 15 30 -3 4 -1 8 4 8 10 0 36 58 33 73 0
4 4 7 10 7 6 0 9 9 6 20 -3 10 -1 20 4 22 5 2 10 14 13 28 2 14 5 25 6 25 3 0
13 60 14 85 1 14 6 28 11 32 6 5 5 8 -2 8 -9 0 -10 7 -4 23 4 12 6 38 4 57 -3
19 -5 54 -6 77 -1 24 -5 43 -8 43 -3 0 -6 6 -7 13 -9 62 -16 87 -25 87 -6 0
-8 2 -5 6 15 15 -74 164 -169 282 -24 30 -43 60 -43 68 0 8 -5 14 -11 14 -5 0
-8 4 -5 9 4 5 2 11 -3 13 -18 6 -36 188 -21 213 3 6 12 28 19 50 8 22 25 55
39 73 13 17 20 32 16 32 -5 0 -4 4 1 8 15 10 37 52 28 52 -5 0 -9 17 -10 37
-1 21 -7 39 -13 41 -5 2 -10 10 -10 18 0 8 -4 14 -9 14 -5 0 -16 7 -24 15 -16
15 -88 26 -119 18z"/>
<path d="M2040 6690 c0 -5 -3 -9 -7 -9 -22 4 -35 -4 -67 -37 -20 -20 -38 -45
-41 -55 -4 -11 -10 -19 -15 -19 -5 0 -11 -13 -15 -30 -4 -16 -11 -30 -17 -30
-6 0 -7 -7 -4 -15 3 -9 0 -18 -7 -21 -7 -2 -14 -12 -15 -22 -2 -21 -10 -57
-12 -57 -6 0 -13 -61 -14 -117 0 -38 -5 -68 -10 -68 -5 0 -4 -6 2 -13 6 -7 11
-22 11 -32 1 -33 7 -64 14 -71 4 -4 7 -18 7 -30 0 -13 5 -26 10 -29 6 -4 8
-11 5 -16 -4 -5 -1 -9 5 -9 6 0 9 -4 5 -9 -3 -5 0 -15 7 -23 7 -7 14 -19 16
-26 3 -18 44 -75 60 -85 6 -4 12 -13 12 -18 0 -6 20 -35 45 -66 25 -30 45 -59
45 -63 0 -5 6 -15 13 -22 11 -12 31 -61 44 -110 8 -32 9 -186 2 -223 -4 -16
-13 -43 -20 -60 -7 -16 -13 -32 -14 -35 -6 -19 -45 -77 -68 -101 -16 -16 -25
-29 -21 -29 4 0 -5 -11 -20 -25 -15 -14 -24 -25 -20 -25 3 0 -1 -11 -10 -25
-9 -14 -14 -25 -10 -25 4 0 2 -6 -4 -12 -21 -26 34 -136 72 -142 6 -1 17 -5
23 -9 18 -12 95 -1 104 15 5 7 9 9 9 4 0 -5 9 1 20 14 11 13 20 28 20 33 0 6
3 7 6 4 6 -6 38 35 106 136 7 10 12 23 11 28 -2 5 1 9 6 9 5 0 15 16 21 35 6
19 16 35 21 35 6 0 8 4 4 9 -3 5 -1 12 4 15 5 4 8 17 7 31 -2 13 0 22 4 20 7
-4 11 9 24 80 2 11 4 20 6 20 6 0 4 57 -2 61 -5 3 -5 11 -1 17 9 14 11 97 3
97 -4 0 -6 20 -5 45 0 25 -2 45 -6 45 -3 0 -6 6 -7 13 -1 19 -9 49 -22 82 -6
17 -11 31 -10 33 2 5 -45 87 -55 94 -5 4 -6 8 -2 8 4 0 -1 10 -13 22 -11 12
-20 26 -20 31 0 4 -6 14 -12 22 -7 7 -24 27 -38 45 -14 18 -30 38 -37 45 -7 7
-22 32 -33 56 -12 24 -26 52 -31 61 -5 10 -6 24 -3 33 3 8 2 15 -3 15 -7 0
-10 64 -3 80 1 3 2 22 2 43 0 20 5 37 11 37 6 0 7 3 4 7 -4 3 0 17 8 30 9 13
13 23 9 23 -3 0 8 19 25 42 17 22 28 45 25 50 -3 4 0 8 6 8 7 0 10 6 7 13 -2
6 -1 21 3 32 7 19 -17 74 -43 99 -20 19 -67 40 -73 33 -4 -3 -15 -2 -25 4 -13
6 -19 6 -19 -1z"/>
<path d="M3510 6668 c-11 -10 -20 -15 -20 -11 0 4 -15 -15 -34 -42 -18 -28
-32 -53 -29 -57 2 -5 -1 -8 -7 -8 -6 0 -15 -12 -21 -27 -5 -16 -12 -35 -16
-43 -3 -8 -5 -18 -5 -22 1 -5 -2 -8 -7 -8 -4 0 -7 -10 -7 -22 1 -13 -1 -28 -5
-33 -19 -25 -26 -148 -14 -235 4 -30 8 -61 8 -67 0 -7 4 -13 9 -13 5 0 7 -4 3
-9 -3 -5 0 -13 6 -16 5 -4 8 -13 5 -21 -3 -8 -1 -14 4 -14 6 0 10 -7 10 -15 0
-23 36 -83 118 -194 17 -24 32 -40 32 -35 0 15 38 -56 81 -151 5 -11 10 -32
11 -47 1 -16 5 -28 8 -28 3 0 6 -23 8 -51 2 -39 0 -49 -10 -43 -10 6 -10 4 -2
-7 11 -15 11 -20 1 -64 -4 -16 -9 -41 -12 -54 -2 -14 -8 -27 -12 -30 -5 -3 -9
-13 -11 -21 -4 -19 -39 -76 -59 -95 -8 -8 -11 -15 -7 -15 4 0 -1 -9 -12 -20
-50 -50 -72 -89 -77 -132 -2 -21 -1 -40 2 -44 3 -3 6 -9 6 -12 2 -23 18 -51
26 -47 5 4 9 2 9 -4 0 -14 32 -30 73 -36 48 -8 96 14 132 59 17 21 40 49 53
63 12 14 22 30 22 35 0 5 6 6 13 2 6 -4 9 -4 5 1 -8 9 22 65 34 65 4 0 8 4 8
10 0 5 11 33 24 62 21 45 34 82 42 121 1 4 2 8 4 10 4 4 13 62 14 92 0 17 5
33 11 37 6 5 5 8 -4 8 -10 0 -11 4 -3 13 13 15 13 29 0 45 -8 8 -7 12 3 12 9
0 10 3 4 8 -5 4 -11 29 -12 57 -1 27 -7 51 -13 53 -5 2 -8 7 -5 11 11 18 -56
190 -77 199 -5 2 -6 7 -4 11 3 4 -15 33 -40 64 -24 31 -44 60 -44 63 0 4 -8
14 -17 23 -24 21 -62 76 -65 93 -2 7 -6 16 -10 19 -5 3 -9 17 -10 32 -1 15 -5
27 -8 27 -12 0 -10 123 2 138 11 13 11 14 -1 7 -11 -6 -12 -5 -5 6 4 8 10 23
11 33 2 11 8 25 13 31 5 7 7 15 3 18 -3 4 -1 7 5 7 7 0 12 4 12 10 0 5 11 26
25 46 14 20 22 40 19 45 -3 5 -1 9 4 9 9 0 8 32 -1 82 -4 23 -58 79 -69 72 -4
-3 -8 -1 -8 4 0 5 -22 9 -50 9 -34 0 -55 -5 -70 -19z"/>
<path d="M116 4603 c-4 -5 -12 -9 -17 -9 -5 -1 -12 -2 -16 -3 -16 -2 -62 -48
-56 -55 3 -3 1 -6 -6 -6 -7 0 -9 -4 -6 -10 3 -5 1 -10 -5 -10 -8 0 -10 -204
-6 -732 4 -737 6 -828 16 -828 3 0 6 -15 6 -32 1 -31 6 -68 21 -148 3 -19 7
-42 8 -50 1 -8 4 -22 7 -30 9 -26 59 -234 60 -247 1 -7 6 -13 11 -13 5 0 7 -7
4 -15 -4 -8 -2 -17 2 -19 5 -3 12 -20 16 -38 4 -18 9 -35 10 -38 21 -54 26
-67 33 -80 5 -8 8 -23 6 -33 -1 -9 2 -15 7 -11 5 3 9 0 9 -6 0 -7 14 -42 31
-78 17 -37 32 -73 33 -80 1 -8 9 -18 17 -23 8 -5 10 -9 5 -9 -5 0 -3 -7 4 -15
7 -8 9 -15 5 -15 -3 0 3 -12 14 -26 12 -15 21 -33 21 -40 0 -8 3 -14 8 -14 4
0 13 -13 20 -28 7 -16 39 -70 72 -121 33 -50 60 -96 60 -102 0 -5 4 -7 10 -4
5 3 10 0 10 -8 0 -8 14 -30 30 -48 44 -50 50 -57 50 -66 0 -4 12 -18 27 -30
14 -13 23 -23 20 -23 -7 0 26 -39 91 -105 23 -24 42 -48 42 -54 0 -6 7 -11 16
-11 9 0 18 -9 21 -20 3 -11 9 -17 14 -14 5 3 9 -2 9 -10 0 -9 3 -16 8 -16 4 0
29 -20 57 -45 27 -25 64 -57 81 -72 18 -15 30 -31 27 -36 -3 -6 -1 -7 4 -4 6
4 18 -2 28 -13 18 -20 17 -20 -31 -21 -27 -1 -52 -1 -56 0 -10 1 -236 3 -323
2 -5 0 -39 0 -75 0 -36 0 -73 0 -82 -1 -27 0 -46 0 -60 1 -7 0 -40 0 -73 0
-33 0 -67 0 -75 0 -8 0 -55 -2 -105 -3 -79 -3 -94 -7 -118 -28 -46 -40 -55
-67 -52 -150 1 -41 4 -77 5 -80 1 -3 1 -15 1 -27 -1 -11 3 -24 9 -28 5 -3 8
-10 5 -14 -6 -10 23 -111 37 -128 5 -7 7 -16 4 -21 -3 -6 1 -15 9 -22 8 -7 15
-18 15 -25 0 -7 11 -28 24 -48 13 -19 22 -38 18 -41 -3 -3 0 -6 6 -6 7 0 12
-5 12 -10 0 -12 12 -28 53 -71 15 -16 25 -29 21 -29 -3 0 12 -18 35 -40 22
-22 46 -40 53 -40 6 0 8 -3 5 -7 -8 -7 34 -39 46 -35 4 1 7 -5 7 -14 0 -8 4
-13 9 -10 5 4 11 2 13 -3 1 -5 10 -11 18 -13 8 -2 23 -11 34 -20 11 -10 26
-18 33 -18 7 0 13 -4 13 -10 0 -5 9 -10 21 -10 13 0 18 -4 13 -12 -4 -7 -4
-10 1 -6 6 6 54 -8 135 -39 8 -3 23 -5 33 -4 9 1 17 -2 17 -6 0 -5 10 -10 23
-12 49 -8 4538 -11 4534 -4 -3 5 16 8 41 8 26 -1 52 2 57 6 6 4 24 9 40 12 34
5 131 44 154 61 12 9 13 8 7 -4 -4 -9 -1 -8 7 2 8 10 18 18 22 18 4 0 20 9 36
21 16 11 29 17 29 13 0 -4 7 1 15 12 8 10 15 16 15 12 0 -16 170 146 170 163
0 7 3 10 6 6 8 -7 93 122 94 141 0 6 5 12 10 12 6 0 10 9 10 19 0 11 4 21 10
23 5 2 11 12 13 23 2 11 9 32 15 46 6 15 14 43 17 63 4 20 10 36 14 36 7 0 8
9 15 153 4 63 2 97 -5 97 -6 0 -7 5 -4 10 3 6 -1 13 -9 16 -9 3 -16 11 -16 18
0 6 -9 17 -21 24 -17 11 -20 11 -14 0 3 -7 1 -6 -7 3 -11 13 -105 22 -223 20
-5 0 -39 0 -75 0 -36 0 -73 0 -82 -1 -27 0 -46 0 -60 1 -11 0 -69 0 -153 -1
-11 0 -74 1 -140 1 -66 0 -124 0 -130 0 -5 0 -39 0 -75 0 -36 0 -73 0 -82 -1
-27 0 -47 0 -60 1 -7 0 -51 0 -98 -1 -47 -1 -98 -1 -114 -1 l-29 1 25 23 c81
72 111 97 119 97 6 0 7 5 4 10 -3 6 -2 10 4 10 12 0 71 58 71 71 0 5 4 9 9 9
5 0 27 18 49 40 22 22 37 40 34 40 -3 0 6 10 20 22 14 13 43 46 65 75 23 29
43 49 47 46 5 -6 8 5 5 24 0 3 6 10 15 15 16 9 93 116 94 131 0 5 12 19 26 32
13 12 22 26 19 29 -4 3 -1 6 5 6 7 0 12 7 12 15 0 8 5 15 10 15 6 0 10 -6 10
-12 0 -9 4 -8 10 2 8 12 13 13 29 3 11 -7 22 -9 25 -5 6 10 207 9 222 0 6 -4
14 -4 18 0 4 3 46 8 94 9 48 1 107 5 132 9 25 4 52 8 60 8 8 0 18 5 22 11 5 6
8 5 8 -4 0 -11 3 -11 15 -1 8 7 21 10 29 7 8 -3 16 -2 18 3 2 5 17 10 33 13
17 2 44 9 60 16 17 7 42 15 57 18 16 3 28 9 28 14 0 5 3 8 8 7 14 -4 52 14 52
24 0 6 3 9 6 5 7 -7 73 24 117 55 15 11 27 16 27 11 0 -4 4 -3 8 3 4 6 28 25
54 43 27 17 48 37 48 42 0 6 4 8 9 4 5 -3 17 5 25 17 9 12 16 19 16 14 0 -5 9
3 21 18 11 14 25 24 30 21 5 -4 9 1 9 10 0 9 5 13 10 10 6 -3 10 1 10 9 0 9 5
16 10 16 6 0 10 7 10 16 0 8 4 13 9 10 5 -3 17 7 27 22 9 15 28 38 41 52 13
14 23 28 23 33 0 4 8 16 18 26 29 32 42 50 42 56 0 3 11 23 25 45 14 22 22 40
18 40 -5 0 -1 5 7 10 8 5 15 13 16 17 0 4 7 22 14 38 7 17 13 33 12 38 -1 4 3
7 9 7 5 0 8 4 5 8 -3 5 1 19 8 33 10 19 38 107 41 129 1 3 4 15 8 27 8 23 17
78 20 126 1 15 5 27 9 27 5 0 8 5 8 11 0 5 -6 7 -12 3 -10 -6 -10 -5 -1 7 9
11 12 157 13 572 0 499 -1 561 -16 593 -20 41 -58 71 -99 75 -17 2 -36 7 -42
12 -8 6 -13 6 -13 -1 0 -13 -52 -11 -62 3 -5 6 -8 6 -8 -2 0 -12 -17 -12 -37
0 -7 5 -13 4 -13 -1 0 -11 -50 -9 -68 2 -7 4 -12 3 -12 -2 0 -11 -50 -9 -68 2
-7 4 -12 3 -12 -2 0 -11 -50 -9 -68 2 -7 4 -12 3 -12 -1 0 -11 -90 -10 -107 0
-7 5 -13 4 -13 -2 0 -13 -53 -9 -62 4 -5 7 -8 7 -8 0 0 -12 -139 -13 -158 -1
-6 4 -12 3 -12 -3 0 -13 -53 -9 -62 4 -5 7 -8 7 -8 0 0 -12 -139 -13 -158 -1
-6 4 -12 3 -12 -2 0 -12 -60 -10 -60 3 0 7 -3 7 -8 0 -4 -5 -19 -10 -33 -10
l-26 -1 0 116 c-1 178 -5 213 -22 234 -13 16 -13 18 -1 11 8 -4 0 6 -18 24
-29 27 -49 36 -74 32 -5 0 -8 4 -8 9 0 12 -22 9 -32 -5 -5 -6 -8 -6 -8 1 0 11
-28 12 -46 1 -6 -3 -14 -3 -18 1 -11 10 -30 9 -38 -3 -5 -7 -8 -6 -8 1 0 12
-48 13 -67 1 -6 -4 -14 -3 -17 1 -6 10 -46 10 -63 -1 -6 -4 -14 -4 -17 1 -4 7
-42 8 -71 2 -5 -1 -12 -1 -15 0 -19 7 -41 7 -46 -1 -3 -5 -11 -6 -17 -2 -18
11 -36 12 -43 2 -3 -5 -11 -6 -17 -2 -19 12 -36 12 -43 2 -4 -6 -10 -6 -17 0
-18 14 -29 14 -38 -1 -5 -7 -9 -8 -9 -2 0 12 -48 13 -67 1 -6 -4 -14 -3 -17 1
-6 10 -46 10 -62 -1 -6 -3 -14 -4 -18 0 -10 11 -76 10 -76 -1 0 -7 -3 -8 -8
-1 -8 12 -32 13 -49 2 -6 -4 -14 -3 -17 2 -7 10 -25 9 -43 -2 -6 -4 -14 -3
-17 2 -7 10 -31 9 -42 -2 -4 -4 -14 -1 -22 6 -18 14 -22 13 -33 -5 -5 -7 -9
-8 -9 -2 0 12 -48 13 -67 1 -6 -4 -14 -3 -17 1 -6 10 -46 10 -63 -1 -6 -4 -14
-4 -17 1 -4 7 -42 8 -71 2 -5 -1 -12 -1 -15 0 -19 7 -41 7 -46 -1 -3 -5 -11
-6 -17 -2 -18 11 -36 12 -43 2 -3 -5 -11 -6 -17 -2 -19 12 -36 12 -43 2 -4 -6
-10 -6 -17 0 -18 14 -29 14 -38 -1 -5 -7 -9 -8 -9 -2 0 12 -48 13 -66 2 -6 -4
-14 -4 -18 -1 -10 11 -56 11 -62 1 -3 -4 -10 -5 -16 -1 -19 11 -78 10 -78 -1
0 -7 -3 -8 -8 -1 -8 12 -32 13 -49 2 -6 -4 -14 -3 -17 2 -7 10 -25 9 -43 -2
-6 -4 -14 -3 -17 2 -7 10 -25 9 -42 -2 -6 -3 -14 -3 -18 1 -11 10 -30 9 -38
-3 -5 -7 -8 -6 -8 1 0 12 -48 13 -67 1 -6 -4 -14 -3 -17 1 -6 10 -46 10 -63
-1 -6 -4 -14 -4 -17 1 -4 7 -42 8 -71 2 -5 -1 -12 -1 -15 0 -19 7 -41 7 -46
-1 -3 -5 -11 -6 -17 -2 -18 11 -36 12 -43 2 -3 -5 -11 -6 -17 -2 -18 11 -36
12 -43 2 -3 -5 -11 -6 -17 -2 -17 11 -31 10 -39 -2 -5 -7 -8 -6 -8 1 0 12 -48
13 -67 1 -6 -4 -14 -3 -17 1 -6 10 -46 10 -62 -1 -6 -3 -14 -4 -18 0 -10 11
-76 10 -76 -1 0 -7 -3 -8 -8 -1 -8 12 -32 13 -49 2 -6 -4 -14 -4 -17 1 -6 10
-66 9 -83 -1 -6 -4 -15 -3 -18 3 -4 7 -12 7 -18 2 -7 -4 -18 -8 -26 -8 -22 1
-82 -59 -84 -83 -1 -12 -4 -21 -7 -21 -9 0 -6 -32 4 -48 4 -6 5 -12 1 -12 -3
0 1 -13 10 -30 14 -28 51 -57 68 -52 4 1 7 -2 7 -7 0 -5 29 -11 65 -13 39 -2
65 1 65 7 0 7 3 7 8 0 8 -11 122 -14 122 -3 0 4 6 5 14 2 25 -10 106 -9 106 1
0 7 3 7 8 0 8 -12 92 -14 92 -2 0 5 5 5 11 1 18 -10 119 -10 119 1 0 7 3 7 8
0 8 -11 122 -14 122 -3 0 4 6 5 14 2 25 -10 106 -9 106 1 0 7 3 7 8 0 8 -12
92 -14 92 -2 0 5 5 5 11 1 18 -10 119 -10 119 1 0 7 3 7 8 0 8 -11 122 -14
122 -3 0 4 6 5 14 2 25 -10 106 -9 106 1 0 7 3 7 8 0 8 -12 92 -14 92 -2 0 5
5 5 11 1 18 -10 119 -10 119 1 0 7 3 7 8 0 8 -11 122 -14 122 -3 0 4 6 5 14 2
25 -10 106 -9 106 1 0 7 3 7 8 0 8 -12 92 -14 92 -2 0 5 5 5 11 1 18 -10 119
-10 119 1 0 7 3 7 8 0 8 -11 122 -14 122 -3 0 4 6 5 14 2 25 -10 106 -9 106 1
0 7 3 7 8 0 8 -12 92 -14 92 -2 0 5 5 5 11 1 18 -10 119 -10 119 1 0 7 3 7 8
0 8 -11 122 -14 122 -3 0 4 6 5 14 2 25 -10 106 -9 110 1 3 6 5 6 5 0 1 -7 16
-9 37 -7 l35 4 -2 -616 c-1 -339 -4 -618 -8 -620 -3 -2 -6 -32 -6 -65 0 -34
-2 -61 -5 -61 -3 0 -6 -15 -7 -32 -1 -18 -4 -48 -8 -65 -3 -18 -8 -45 -9 -60
-2 -16 -5 -30 -6 -33 -1 -3 -3 -9 -4 -15 -2 -10 -28 -125 -31 -135 -1 -3 -5
-18 -9 -35 -4 -16 -10 -37 -13 -45 -7 -16 -11 -31 -17 -57 -3 -10 -5 -18 -6
-18 -1 0 -3 -9 -5 -19 -2 -10 -10 -23 -17 -27 -7 -5 -10 -9 -6 -9 8 0 -20 -83
-52 -155 -10 -22 -19 -43 -19 -47 -1 -5 -19 -42 -41 -83 -22 -41 -40 -82 -40
-91 0 -8 -4 -12 -10 -9 -5 3 -10 0 -10 -7 0 -7 -11 -30 -25 -49 -13 -20 -21
-39 -18 -43 4 -3 1 -6 -5 -6 -6 0 -14 -9 -17 -20 -3 -11 -12 -26 -19 -32 -6
-7 -22 -30 -35 -50 -12 -21 -27 -38 -32 -38 -6 0 -8 -4 -5 -8 3 -5 -2 -18 -12
-28 -9 -10 -35 -43 -57 -72 -21 -28 -43 -52 -47 -52 -4 0 -8 -4 -8 -10 0 -5
-18 -27 -39 -49 -21 -22 -37 -41 -35 -44 2 -2 -12 -16 -31 -31 -19 -16 -32
-32 -29 -37 3 -5 1 -9 -4 -9 -6 0 -38 -27 -71 -59 -34 -33 -61 -58 -61 -56 0
2 -11 -6 -24 -18 -13 -12 -42 -38 -65 -57 -24 -19 -48 -40 -56 -47 -7 -7 -15
-9 -19 -6 -3 3 -8 -2 -12 -11 -3 -9 -11 -16 -18 -16 -6 0 -22 -10 -36 -22 -36
-33 -140 -100 -140 -91 0 5 -5 0 -11 -10 -8 -13 -22 -18 -57 -17 -90 1 -297 1
-309 1 -17 -1 -40 -1 -55 0 -12 0 -100 0 -153 -1 -23 0 -155 1 -170 1 -9 0
-102 0 -150 -1 -138 -1 -248 1 -256 5 -5 4 -9 3 -9 -2 0 -7 -107 -8 -300 -4
-19 1 -43 1 -52 1 -10 0 -24 0 -30 1 -11 0 -69 0 -153 -1 -11 0 -74 1 -140 1
-66 0 -127 0 -135 0 -106 -2 -132 -1 -140 4 -6 3 -10 3 -10 -2 0 -6 -112 -7
-222 -2 -12 0 -99 0 -153 -1 -150 -2 -185 3 -185 23 0 6 -3 8 -6 5 -3 -4 -34
14 -70 38 -35 24 -69 44 -74 44 -6 0 -10 4 -10 8 0 5 -11 15 -25 22 -13 7 -22
17 -19 22 3 5 2 7 -3 6 -9 -3 -103 62 -103 72 0 4 -12 12 -26 18 -15 7 -22 17
-18 24 4 7 3 8 -5 4 -6 -4 -14 0 -17 8 -3 9 -10 16 -16 16 -11 0 -68 61 -68
72 0 5 -4 7 -8 6 -7 -3 -112 100 -112 109 0 3 -18 22 -41 44 -22 21 -37 39
-33 39 4 0 -3 9 -16 20 -13 11 -20 20 -15 20 4 0 -3 9 -16 20 -13 10 -20 19
-16 20 4 0 -3 11 -17 24 -15 13 -26 28 -26 33 0 5 -9 18 -20 28 -11 10 -20 22
-20 28 0 5 -10 18 -22 28 -11 11 -18 19 -14 19 4 0 -2 14 -14 30 -12 17 -18
30 -13 30 4 0 3 4 -2 8 -17 11 -57 72 -49 72 4 0 -1 7 -12 16 -10 8 -13 13 -6
9 7 -3 1 10 -13 30 -13 21 -22 42 -18 49 3 6 2 8 -2 3 -7 -6 -15 6 -40 63 -2
3 -6 15 -10 28 -4 12 -12 22 -18 22 -6 0 -8 3 -5 6 4 3 -5 30 -18 60 -13 30
-24 61 -24 69 0 8 -5 15 -11 15 -6 0 -9 6 -6 13 3 7 -1 21 -9 32 -8 10 -14 28
-14 40 0 12 -3 25 -7 29 -5 4 -8 11 -9 14 0 4 -6 27 -13 52 -7 25 -14 50 -16
55 -1 6 -5 18 -9 27 -4 9 -5 22 -1 28 3 5 1 10 -5 10 -7 0 -10 6 -7 14 3 8 3
17 -1 20 -7 8 -12 32 -14 64 0 12 -4 22 -8 22 -4 0 -7 10 -6 23 1 12 -2 38 -6
58 -9 43 -20 141 -22 187 0 17 -5 32 -10 32 -4 0 -3 6 3 14 9 11 9 16 0 21 -8
6 -7 10 2 16 10 6 11 9 2 9 -13 0 -13 26 0 46 3 6 3 14 -1 18 -4 4 -7 257 -8
562 l0 554 157 -1 c87 -1 162 2 168 5 6 4 11 4 11 -1 0 -9 283 -8 306 1 8 3
14 2 14 -2 0 -11 124 -8 132 3 5 6 8 5 8 -3 0 -7 4 -11 8 -8 4 2 39 5 77 7 39
1 75 6 82 11 7 5 18 6 24 2 7 -4 9 -3 5 4 -3 6 3 13 14 17 11 4 18 11 15 16
-4 5 0 11 7 14 17 7 27 77 17 115 -6 23 -64 79 -85 83 -11 1 -25 6 -32 10 -7
5 -12 3 -12 -5 0 -8 -3 -9 -8 -3 -8 12 -27 13 -37 3 -4 -4 -16 -3 -26 2 -12 7
-20 7 -24 0 -4 -7 -12 -7 -18 -2 -14 10 -47 10 -64 -1 -6 -4 -14 -3 -17 1 -6
11 -46 10 -63 -1 -7 -5 -13 -4 -13 1 0 12 -43 10 -52 -3 -5 -6 -8 -6 -8 2 0
12 -24 12 -36 0 -4 -3 -15 -2 -25 3 -12 7 -20 7 -24 0 -4 -6 -12 -7 -18 -3
-17 11 -57 11 -63 1 -3 -5 -11 -5 -17 0 -14 10 -47 10 -64 -1 -7 -5 -13 -4
-13 1 0 12 -43 10 -52 -3 -5 -6 -8 -6 -8 2 0 12 -24 12 -36 0 -4 -3 -15 -2
-25 3 -12 7 -20 7 -24 0 -4 -6 -12 -7 -18 -3 -17 11 -57 11 -63 1 -3 -5 -11
-5 -17 0 -14 10 -47 10 -64 -1 -7 -5 -13 -4 -13 2 0 10 -18 10 -36 -2 -6 -3
-14 -3 -18 0 -12 12 -36 12 -36 0 0 -8 -3 -8 -8 -2 -10 14 -42 15 -42 1 0 -7
-3 -7 -8 2 -5 7 -12 9 -16 5z m5682 -706 c6 -5 12 -4 12 2 0 13 53 9 62 -4 5
-7 8 -6 8 1 0 12 58 13 78 1 6 -5 12 -4 12 2 0 13 53 9 62 -4 5 -7 8 -6 8 1 0
12 58 13 78 1 6 -5 12 -4 12 2 0 13 53 9 62 -4 5 -7 8 -6 8 1 0 12 58 13 78 1
6 -5 12 -4 12 2 0 13 53 9 62 -4 5 -6 8 -6 8 1 0 12 49 12 68 0 6 -3 13 -3 16
2 6 10 57 9 74 -1 6 -5 12 -4 12 2 0 13 53 9 62 -4 5 -6 8 -6 8 1 0 12 49 12
68 0 6 -3 13 -2 16 3 3 5 14 7 24 4 18 -4 19 -26 18 -463 -1 -252 -4 -462 -8
-465 -4 -4 -3 -16 3 -26 7 -13 6 -19 -1 -19 -6 0 -11 -10 -10 -22 1 -13 1 -25
0 -28 -2 -6 -7 -28 -13 -60 -3 -14 -6 -26 -6 -27 -1 -2 -1 -4 0 -5 0 -2 -11
-34 -25 -72 -33 -88 -92 -205 -117 -232 -11 -11 -16 -24 -12 -27 3 -4 1 -7 -5
-7 -5 0 -20 -16 -32 -35 -12 -19 -27 -32 -32 -29 -6 4 -8 3 -5 -3 9 -14 -165
-177 -177 -166 -3 4 -6 1 -6 -5 0 -10 -17 -22 -80 -54 -14 -7 -28 -16 -31 -21
-3 -4 -15 -9 -26 -12 -12 -2 -33 -11 -47 -20 -14 -10 -26 -14 -26 -10 0 4 -12
0 -26 -10 -14 -9 -28 -14 -31 -11 -3 3 -15 0 -27 -6 -11 -7 -32 -14 -46 -15
-14 -2 -32 -6 -40 -10 -18 -7 -44 -11 -130 -17 -36 -3 -75 -7 -87 -10 -13 -3
-23 -1 -23 4 0 5 -13 5 -30 0 -19 -5 -30 -5 -30 1 0 6 -6 7 -12 3 -17 -11 -48
-12 -48 -3 0 4 -12 4 -27 0 -32 -9 -74 1 -55 13 7 4 10 12 7 17 -4 5 -1 9 6 9
7 0 9 3 6 7 -4 3 -2 12 4 20 6 7 8 13 3 13 -5 0 -3 4 4 9 7 4 14 14 15 22 2 8
7 21 12 29 5 8 11 24 12 35 2 10 7 22 11 25 4 3 9 14 10 25 2 11 8 22 13 23 5
2 9 9 9 17 0 12 45 12 77 1 6 -3 14 -2 17 2 4 3 35 7 69 8 68 3 117 11 154 25
14 5 28 7 33 4 4 -3 13 2 20 10 7 8 19 15 28 15 15 0 142 66 152 79 3 3 22 17
42 31 20 13 34 28 32 32 -3 4 -1 8 4 8 11 0 52 35 52 44 0 11 38 45 44 39 3
-4 6 1 6 10 0 10 9 26 20 37 11 11 18 20 15 20 -3 0 5 17 19 37 14 20 23 40
20 45 -3 4 -1 8 4 8 9 0 55 131 57 160 0 8 3 20 6 25 3 6 4 20 3 33 0 12 1 22
5 22 3 0 6 121 5 270 -1 306 -4 322 -74 360 -33 18 -4 17 -341 18 l-296 2 0
133 c-1 72 1 135 4 139 5 9 33 6 51 -5z m187 -543 c22 0 47 3 56 7 9 5 20 5
23 1 11 -11 86 -10 86 1 0 5 7 4 16 -4 13 -11 15 -40 13 -201 -2 -103 -6 -188
-10 -188 -4 0 -6 -9 -4 -20 2 -11 -1 -20 -6 -20 -6 0 -8 -3 -5 -8 2 -4 -6 -30
-20 -57 -13 -28 -24 -55 -24 -60 0 -6 -8 -17 -17 -26 -10 -8 -31 -32 -47 -52
-16 -20 -38 -39 -48 -43 -10 -3 -16 -9 -13 -14 3 -5 -6 -12 -20 -16 -14 -3
-25 -10 -25 -16 0 -5 -4 -6 -10 -3 -5 3 -10 1 -10 -6 0 -7 -3 -9 -7 -6 -3 4
-14 0 -23 -8 -10 -9 -27 -18 -39 -20 -11 -3 -31 -8 -43 -11 -13 -3 -36 -7 -53
-9 -16 -1 -34 -4 -40 -5 -5 -1 -23 -2 -39 -1 -23 1 -27 4 -21 19 9 21 17 62
18 82 0 8 3 20 7 25 5 6 11 34 14 64 3 29 11 60 18 69 10 12 10 14 1 8 -7 -4
-13 -2 -13 3 0 6 4 11 8 11 5 0 7 14 6 30 -1 17 2 33 7 36 5 3 4 14 -2 26 -6
11 -7 18 -2 15 6 -4 11 14 12 41 5 91 6 107 14 120 5 6 5 12 0 12 -4 0 -8 16
-8 35 0 19 2 35 5 35 3 0 4 35 4 78 l-2 78 85 -1 c46 0 87 3 89 7 3 5 11 5 17
1 7 -4 30 -8 52 -9z m-213 -2593 c4 0 2 -16 -4 -33 -5 -18 -10 -39 -11 -45 0
-7 -4 -13 -8 -13 -4 0 -6 -9 -4 -20 2 -11 0 -18 -5 -15 -8 5 -26 -32 -22 -47
1 -5 -3 -8 -8 -8 -6 0 -10 -7 -10 -15 0 -8 -6 -14 -12 -12 -7 1 -12 -4 -10
-11 2 -12 -108 -132 -123 -132 -4 0 -16 -10 -26 -22 -11 -11 -19 -18 -19 -14
0 4 -12 -2 -26 -13 -15 -11 -30 -18 -35 -15 -5 3 -9 1 -9 -4 0 -5 -10 -13 -22
-17 -13 -4 -25 -8 -28 -9 -18 -8 -99 -29 -117 -31 -12 -2 -27 -6 -34 -11 -8
-5 -9 -3 -4 6 6 10 4 11 -6 4 -19 -12 -4370 -14 -4386 -2 -7 5 -14 5 -18 -2
-4 -7 -12 -7 -25 0 -10 5 -28 10 -39 10 -12 0 -21 5 -21 11 0 5 -5 7 -10 4 -6
-4 -18 -1 -27 7 -14 11 -16 11 -8 -2 8 -13 7 -13 -8 -1 -9 7 -17 10 -17 5 0
-5 -5 -2 -10 6 -5 8 -13 15 -17 16 -64 7 -273 192 -273 241 0 7 -4 13 -10 13
-5 0 -13 12 -16 28 -4 15 -11 30 -16 33 -5 3 -10 15 -13 27 -2 11 -8 29 -12
39 -8 15 -9 34 -4 46 1 3 5460 1 5473 -2z"/>
<path d="M1940 4602 c0 -6 -11 -9 -25 -8 -13 2 -22 0 -20 -4 2 -4 -7 -13 -20
-20 -14 -7 -25 -19 -25 -27 0 -7 -5 -13 -11 -13 -6 0 -9 -9 -6 -20 3 -11 1
-20 -4 -20 -5 0 -6 -19 -4 -42 5 -33 15 -51 45 -79 35 -33 44 -36 87 -34 40 2
129 34 98 35 -5 0 -2 7 9 15 11 8 16 20 12 30 -3 9 -2 13 3 10 11 -6 18 29 12
67 -4 33 -59 96 -86 101 -11 1 -26 7 -34 11 -11 7 -12 6 -6 -5 8 -12 6 -12 -8
0 -10 7 -17 9 -17 3z"/>
<path d="M4924 3411 c3 -5 -2 -7 -12 -5 -10 3 -31 -8 -51 -25 -19 -17 -30 -31
-25 -31 5 0 3 -4 -4 -9 -14 -8 -20 -58 -27 -196 -2 -38 -4 -72 -5 -75 -1 -3
-2 -9 -1 -14 1 -4 -4 -15 -11 -24 -10 -12 -10 -14 0 -8 6 4 12 3 12 -3 0 -5
-4 -12 -9 -15 -5 -3 -7 -22 -5 -41 1 -20 0 -33 -4 -31 -5 3 -8 -5 -9 -17 -1
-25 -11 -73 -20 -102 -4 -11 -8 -24 -9 -30 -7 -25 -15 -61 -17 -70 -2 -5 -6
-16 -10 -22 -5 -7 -5 -17 -2 -23 3 -5 1 -10 -4 -10 -6 0 -11 -9 -11 -20 0 -11
-4 -20 -8 -20 -5 0 -9 -7 -10 -15 -1 -8 -3 -22 -4 -30 -1 -8 -6 -15 -11 -15
-6 0 -8 -3 -4 -6 3 -4 -5 -27 -18 -52 -13 -25 -22 -49 -19 -54 3 -4 0 -8 -5
-8 -6 0 -11 -7 -11 -15 0 -8 -5 -15 -12 -15 -6 0 -8 -3 -5 -6 6 -6 -18 -59
-33 -74 -6 -6 -29 -46 -48 -82 -7 -16 -18 -28 -23 -28 -6 0 -7 -4 -4 -10 3 -5
1 -10 -6 -10 -7 0 -10 -3 -7 -6 4 -3 -1 -14 -10 -23 -9 -10 -24 -28 -32 -41
-29 -43 -54 -75 -67 -83 -8 -5 -11 -12 -8 -18 4 -5 -1 -9 -9 -9 -9 0 -16 -5
-16 -10 0 -6 -23 -34 -50 -62 -28 -28 -48 -53 -45 -56 2 -2 -2 -11 -10 -18
-20 -20 -14 -104 10 -136 35 -47 114 -70 158 -46 12 7 25 11 30 10 4 -1 7 2 7
8 0 5 7 10 15 10 8 0 14 4 13 9 -2 5 5 17 15 28 84 88 135 148 131 155 -3 4 2
8 11 8 9 0 14 4 11 9 -3 4 3 16 14 26 11 10 20 24 20 31 0 7 11 21 25 32 14
11 25 23 25 27 0 4 10 21 22 38 13 18 22 34 21 37 -1 3 6 14 16 25 9 12 15 27
13 34 -3 8 0 11 5 8 5 -3 16 9 23 28 8 19 17 35 22 35 4 0 7 3 6 8 -1 4 10 33
25 65 15 32 27 62 27 67 0 6 5 10 11 10 5 0 7 5 4 10 -3 6 -1 10 6 10 7 0 9 3
6 7 -4 3 -1 13 5 21 7 8 13 20 13 26 2 25 18 66 26 66 5 0 6 7 3 15 -4 8 -1
22 6 30 6 8 9 19 5 25 -3 5 -2 10 3 10 5 0 12 12 15 28 6 31 10 50 27 112 14
53 19 75 25 115 3 17 7 39 9 50 6 28 19 126 20 150 1 11 5 25 9 32 4 6 3 14
-3 18 -6 4 -8 11 -4 16 8 13 12 169 5 169 -4 0 -7 9 -8 21 -2 23 -59 78 -83
80 -8 0 -28 3 -43 5 -17 3 -26 1 -23 -5z"/>
<path d="M3832 1596 c-29 -25 -57 -58 -57 -69 -1 -7 -7 -11 -14 -9 -7 1 -10
-2 -6 -8 5 -9 14 -64 17 -107 1 -7 3 -11 5 -9 2 2 17 -8 33 -22 29 -26 44 -31
90 -33 40 -2 51 4 92 45 43 43 49 67 33 134 -4 19 -14 36 -21 39 -8 3 -14 12
-14 21 0 8 -3 12 -7 9 -3 -4 -13 -1 -21 6 -19 15 -113 17 -130 3z"/>
</g>
</svg>
